# xmcd
#
# Track frame offsets:
#   150
#   14093
#   32625
#   46190
#   64938
#   78530
#   97143
#   112490
#   124274
#   138865
#   156263
#   172635
#   189061
#   206459
#   227582
#   248921
#   270557
#   285148
#   300414
#   318217
#
# Disc length: 4379 seconds
#
# Revision: 0
# Processed by: cddbd v1.5.1PL0 Copyright (c) Steve Scherf et al.
# Submitted via: uFREEDB ActiveX Control 1.5
#
DISCID=09111914
DTITLE=CHYSTIAN and RALF - AS 20 MAIS
DYEAR=1900
DGENRE=SERTANEJO
TTITLE0=MACHUCANDO O CORAÇÃO
TTITLE1=ESSE AMOR QUE ME MATA
TTITLE2=VIRA VIROU
TTITLE3=O QUE TIVER QUE DE VIR VIRÁ
TTITLE4=FLECHA CERTEIRA
TTITLE5=SOU EU
TTITLE6=CHEIRO DE SHAMPOO
TTITLE7=SAUDADE
TTITLE8=MITO
TTITLE9=AUSÊNCIA
TTITLE10=BRIGAS
TTITLE11=TEMPO AO TEMPO
TTITLE12=TRATO É TRATO
TTITLE13=YOLANDA
TTITLE14=NA LUZ DESTE SOL
TTITLE15=OLHOS DE LUAR
TTITLE16=AMARGURADO
TTITLE17=O IPÊ E O PRISIONEIRO
TTITLE18=CAMINHEIRO
TTITLE19=LADRÃO DE MULHER
EXTD=
EXTT0=
EXTT1=
EXTT2=
EXTT3=
EXTT4=
EXTT5=
EXTT6=
EXTT7=
EXTT8=
EXTT9=
EXTT10=
EXTT11=
EXTT12=
EXTT13=
EXTT14=
EXTT15=
EXTT16=
EXTT17=
EXTT18=
EXTT19=
PLAYORDER=
